<?xml version="1.0" ?><svg data-name="Lovely Valentine's day" height="64" id="Lovely_Valentine_s_day" viewBox="0 0 64 64" width="64" xmlns="http://www.w3.org/2000/svg"><defs><style>.cls-1{fill:#e29e9a;}.cls-2{fill:#842835;}.cls-3{fill:#623905;}.cls-4{fill:#f6e3a6;}.cls-5{fill:#268484;}.cls-6{fill:#2c9ea5;}.cls-7{fill:#d26274;}</style></defs><title/><circle class="cls-1" cx="32" cy="32" r="28"/><path class="cls-2" d="M39,38.727a3.319,3.319,0,0,1-.987,2.378l-2.378,2.378-2.926,2.935a1,1,0,0,1-1.417,0l-2.926-2.935-2.378-2.378a3.363,3.363,0,0,1,4.756-4.757L32,37.6l1.257-1.257a3.365,3.365,0,0,1,4.756,0A3.32,3.32,0,0,1,39,38.727Z"/><path class="cls-3" d="M32,47.712h0a1.983,1.983,0,0,1-1.415-.588l-5.3-5.312a4.346,4.346,0,0,1,0-6.173,4.365,4.365,0,0,1,6.168,0l.549.549.55-.549a4.366,4.366,0,0,1,6.17,0,4.358,4.358,0,0,1-.006,6.176l-5.3,5.306A1.991,1.991,0,0,1,32,47.712ZM28.366,36.365a2.358,2.358,0,0,0-1.672.691,2.347,2.347,0,0,0,0,3.339L32,45.712,37.306,40.4a2.357,2.357,0,0,0,.006-3.335,2.367,2.367,0,0,0-3.348-.006l-1.257,1.256A1,1,0,0,1,32,38.6h0a1,1,0,0,1-.707-.293l-1.256-1.256A2.355,2.355,0,0,0,28.366,36.365Z"/><path class="cls-4" d="M25,15V29a6,6,0,0,1-12,0V15a2.006,2.006,0,0,1,2-2h8A2.006,2.006,0,0,1,25,15Z"/><path class="cls-5" d="M25,22v6.794a6.138,6.138,0,0,1-5.213,6.156A6.006,6.006,0,0,1,13,29V22Z"/><path class="cls-3" d="M19.015,36A7,7,0,0,1,12,29V21H26v7.794A6.981,6.981,0,0,1,19.015,36ZM14,23v6a5,5,0,0,0,5.659,4.958A5.118,5.118,0,0,0,24,28.794V23Z"/><path class="cls-3" d="M19,36a7.008,7.008,0,0,1-7-7V15a3,3,0,0,1,3-3h8a3,3,0,0,1,3,3V29A7.008,7.008,0,0,1,19,36ZM15,14a1,1,0,0,0-1,1V29a5,5,0,0,0,10,0V15a1,1,0,0,0-1-1Z"/><rect class="cls-3" height="16" width="2" x="18" y="35"/><rect class="cls-3" height="2" rx="1" width="12" x="13" y="50"/><path class="cls-6" d="M22,26.25v2.384a3.078,3.078,0,0,1-2.4,3.058A3,3,0,0,1,16,28.75v-2.5a1,1,0,0,1,1-1h4A1,1,0,0,1,22,26.25Z"/><path class="cls-4" d="M51,15V29a6,6,0,0,1-12,0V15a2.006,2.006,0,0,1,2-2h8A2.006,2.006,0,0,1,51,15Z"/><path class="cls-7" d="M51,22v6.794a6.138,6.138,0,0,1-5.213,6.156A6.006,6.006,0,0,1,39,29V22Z"/><path class="cls-3" d="M45.015,36A7,7,0,0,1,38,29V21H52v7.794A6.981,6.981,0,0,1,45.015,36ZM40,23v6a5,5,0,0,0,5.659,4.958A5.118,5.118,0,0,0,50,28.794V23Z"/><path class="cls-3" d="M45,36a7.008,7.008,0,0,1-7-7V15a3,3,0,0,1,3-3h8a3,3,0,0,1,3,3V29A7.008,7.008,0,0,1,45,36ZM41,14a1,1,0,0,0-1,1V29a5,5,0,0,0,10,0V15a1,1,0,0,0-1-1Z"/><rect class="cls-3" height="16" width="2" x="44" y="35"/><rect class="cls-3" height="2" rx="1" width="12" x="39" y="50"/><path class="cls-1" d="M48,26.272l-.008,2.371a3.067,3.067,0,0,1-2.4,3.039,2.993,2.993,0,0,1-3.573-2.943l.008-2.486a1,1,0,0,1,1-1L47,25.269A1,1,0,0,1,48,26.272Z"/></svg>